<svg width="40" height="40" viewBox="0 0 40 40" fill="none" xmlns="http://www.w3.org/2000/svg">
<rect width="40" height="40" rx="4" fill="#152242"/>
<g clip-path="url(#clip0_1569_8310)">
<path d="M29.5507 5.80785C29.9106 4.42623 26.6229 3.13744 24.6911 2.60501C22.7592 2.07258 19.2774 1.52893 18.9255 2.8795C18.7314 3.62464 19.3912 4.07268 19.5679 4.38762C19.4327 5.23774 18.914 7.29546 17.9203 8.72537C16.6782 10.5128 14.929 10.6872 13.6337 11.271C12.1675 11.9317 11.4083 13.8522 11.1495 14.8457L7.00841 30.7421C7.05578 31.5538 8.51415 33.5186 10.5786 34.9206C12.5578 36.2648 18.1119 37.7955 20.7208 37.7159C23.0915 37.6435 26.1328 36.8115 26.3269 36.0664L30.468 20.17C30.7484 19.0937 31.2704 17.0901 30.0544 15.7966C28.8385 14.5031 27.9158 13.0775 27.5795 11.3875C27.3106 10.0356 27.9004 7.83768 28.2613 6.78354C28.8089 6.66827 29.389 6.42881 29.5507 5.80785Z" fill="#FEFEFE"/>
<path d="M26.1011 21.3784C25.1795 21.6765 24.6979 20.7053 23.6127 20.6922C22.5274 20.6792 22.099 20.9398 21.5972 21.4924C21.0727 22.0701 20.7648 23.3606 21.2916 24.1517C22.0379 25.2726 23.0564 26.4793 24.9678 27.0555C27.1573 27.7156 28.0723 26.517 28.9151 26.1313L29.703 23.1682C29.6616 22.7718 29.6528 21.9245 29.3347 21.2655C28.937 20.4417 28.0262 19.9752 27.4156 20.239C26.7194 20.5398 26.8059 21.1505 26.1011 21.3784Z" fill="#546DDB"/>
<path d="M26.1011 21.3784C25.1795 21.6765 24.6979 20.7053 23.6127 20.6922C22.5274 20.6792 22.099 20.9398 21.5972 21.4924C21.0727 22.0701 20.7648 23.3606 21.2916 24.1517C22.0379 25.2726 23.0564 26.4793 24.9678 27.0555C27.1573 27.7156 28.0723 26.517 28.9151 26.1313L29.703 23.1682C29.6616 22.7718 29.6528 21.9245 29.3347 21.2655C28.937 20.4417 28.0262 19.9752 27.4156 20.239C26.7194 20.5398 26.8059 21.1505 26.1011 21.3784Z" fill="white" fill-opacity="0.4"/>
<path d="M15.9834 10.3213C14.9844 10.7517 14.1889 10.9067 13.6337 11.271C13.964 12.2093 14.4673 12.4376 15.3758 12.6535C16.8295 12.9989 15.7994 13.6645 17.5743 15.2723C19.3491 16.88 21.3479 16.2677 22.0657 15.1988C22.7849 14.1303 21.7401 13.0595 21.3038 12.6939C20.8674 12.3283 21.5252 11.8196 21.6408 11.0051C21.7551 10.1892 21.6393 9.71737 20.7281 8.87703C20.1196 8.3162 19.2934 7.93551 18.3559 8.04685C17.8165 9.05643 17.1138 9.83423 15.9834 10.3213Z" fill="#546DDB"/>
<path d="M15.9834 10.3213C14.9844 10.7517 14.1889 10.9067 13.6337 11.271C13.964 12.2093 14.4673 12.4376 15.3758 12.6535C16.8295 12.9989 15.7994 13.6645 17.5743 15.2723C19.3491 16.88 21.3479 16.2677 22.0657 15.1988C22.7849 14.1303 21.7401 13.0595 21.3038 12.6939C20.8674 12.3283 21.5252 11.8196 21.6408 11.0051C21.7551 10.1892 21.6393 9.71737 20.7281 8.87703C20.1196 8.3162 19.2934 7.93551 18.3559 8.04685C17.8165 9.05643 17.1138 9.83423 15.9834 10.3213Z" fill="white" fill-opacity="0.4"/>
<path d="M13.3483 21.3083C11.0938 20.1335 9.35295 21.704 9.07898 22.7938L7.00843 30.742C7.1205 31.3053 7.80838 32.5476 9.08236 33.7096C11.1737 35.617 12.8058 36.081 14.0714 36.4157C14.395 35.1738 13.9269 34.8666 14.1132 34.257C14.2996 33.6473 15.6587 34.284 17.0014 33.7827C17.7777 33.4929 18.8966 31.9054 17.6658 30.4352C16.3366 28.8475 14.112 29.2589 14.0797 28.3769C14.0475 27.4949 14.9543 27.5694 15.334 26.2602C15.8127 24.6094 15.1518 22.2481 13.3483 21.3083Z" fill="#546DDB"/>
<path d="M13.3483 21.3083C11.0938 20.1335 9.35295 21.704 9.07898 22.7938L7.00843 30.742C7.1205 31.3053 7.80838 32.5476 9.08236 33.7096C11.1737 35.617 12.8058 36.081 14.0714 36.4157C14.395 35.1738 13.9269 34.8666 14.1132 34.257C14.2996 33.6473 15.6587 34.284 17.0014 33.7827C17.7777 33.4929 18.8966 31.9054 17.6658 30.4352C16.3366 28.8475 14.112 29.2589 14.0797 28.3769C14.0475 27.4949 14.9543 27.5694 15.334 26.2602C15.8127 24.6094 15.1518 22.2481 13.3483 21.3083Z" fill="white" fill-opacity="0.4"/>
<path d="M6.27615 13.6283C7.53992 13.6364 9.97969 13.64 11.4834 13.9082L11.0201 15.3425L10.9912 15.3417C9.05423 15.2835 5.76282 15.1847 5.34131 16.8768C4.9177 18.5773 11.3143 22.4049 18.9022 24.4761C26.4901 26.5473 33.8972 26.8228 34.5008 24.652C34.903 23.2053 31.919 21.1429 30.4033 20.4184L30.7269 19.1765C31.7132 19.5884 33.6555 20.4797 34.6407 21.0639C35.7925 21.7468 39.9526 24.1515 39.4382 26.2165C38.8785 28.4636 31.9026 29.5337 18.5088 26.0552C6.53114 22.9444 -0.334133 18.2243 0.316411 15.6128C0.724893 13.973 4.51997 13.6171 6.27615 13.6283Z" fill="#FAA21E"/>
<path d="M6.27615 13.6283C7.53992 13.6364 9.97969 13.64 11.4834 13.9082L11.0201 15.3425L10.9912 15.3417C9.05423 15.2835 5.76282 15.1847 5.34131 16.8768C4.9177 18.5773 11.3143 22.4049 18.9022 24.4761C26.4901 26.5473 33.8972 26.8228 34.5008 24.652C34.903 23.2053 31.919 21.1429 30.4033 20.4184L30.7269 19.1765C31.7132 19.5884 33.6555 20.4797 34.6407 21.0639C35.7925 21.7468 39.9526 24.1515 39.4382 26.2165C38.8785 28.4636 31.9026 29.5337 18.5088 26.0552C6.53114 22.9444 -0.334133 18.2243 0.316411 15.6128C0.724893 13.973 4.51997 13.6171 6.27615 13.6283Z" fill="white" fill-opacity="0.2"/>
<path d="M28.7191 5.51167C28.5566 6.14798 26.4761 6.10477 24.0386 5.44412C21.6011 4.78346 19.7268 3.81521 19.8893 3.1789C20.0517 2.5426 22.1894 2.47919 24.6269 3.13985C27.0644 3.8005 28.8815 4.87537 28.7191 5.51167Z" fill="#898989"/>
<path d="M28.7191 5.51167C28.5566 6.14798 26.4761 6.10477 24.0386 5.44412C21.6011 4.78346 19.7268 3.81521 19.8893 3.1789C20.0517 2.5426 22.1894 2.47919 24.6269 3.13985C27.0644 3.8005 28.8815 4.87537 28.7191 5.51167Z" fill="white" fill-opacity="0.6"/>
</g>
<defs>
<clipPath id="clip0_1569_8310">
<rect width="40" height="36" fill="white" transform="translate(0 2)"/>
</clipPath>
</defs>
</svg>
