<svg xmlns="http://www.w3.org/2000/svg">
    <symbol fill="none" viewBox="0 0 50 50" id="blazing_trident">
        <g clip-path="url(#adia)">
            <path d="M3.23 42.5c-1.038 2.454-1.272 4.748-.73 5.5.914-1.444 3.519-5 5-5 3 0 6.278-.033 9-2 2.178-1.574 2.967-4.283 2.996-5.31-.167.251-.737.948-1.687 1.726-.95.78-4.673 1.047-5.309 1.084.665-.693 4.41-2.852 6.317-3.953l.083-.047c2.6-1.5 4.219-2.608 4.6-5 .372-2.331-.367-5.738-.736-6.5-.156.612-.473 4.007-1.264 5.5-.79 1.493-3.264 1.914-4 2.5.013-2.8-.316-4.078.737-5.5 1.173-1.584 1.83-1.568 4.263-4 1.5-1.5 1.617-3.335 1-5.5-.5 3-1.128 3.842-3 5-2.483 1.536-6.15 2.51-6.5 8.5-.35 5.99-2.767 6.894-5.5 8.5-2.732 1.606-4 1.5-5.27 4.5Z" fill="#FAA21E" />
            <g clip-path="url(#adib)">
                <path d="m29.375 18.75 1.875 1.875L3.125 48.75 1.25 46.875 29.375 18.75Z" fill="#D0333D" />
                <path d="m29.375 18.75 1.875 1.875L3.125 48.75 1.25 46.875 29.375 18.75Z" fill="#000" fill-opacity=".2" />
                <path d="m29.375 18.75.935.935L2.185 47.81l-.935-.935L29.375 18.75Z" fill="#D0333D" />
                <path d="m29.375 18.75.935.935L2.185 47.81l-.935-.935L29.375 18.75Z" fill="#fff" fill-opacity=".4" />
                <path d="M27.792 9.97C29.493 7.737 32.55 5.2 38.125 0l-2.378 6.435-.683-2.45c-2.863 3.073-4.385 4.776-5.062 7.312 0 1.828.998 3.703 2.498 3.203l-3.75 6.75c.884-1.768-.725-5.247-1.4-7.302-.475-1.448-.26-2.676.442-3.977Z" fill="#D0333D" />
                <path d="M27.792 9.97C29.493 7.737 32.55 5.2 38.125 0l-2.378 6.435-.683-2.45c-2.863 3.073-4.385 4.776-5.062 7.312 0 1.828.998 3.703 2.498 3.203l-3.75 6.75c.884-1.768-.725-5.247-1.4-7.302-.475-1.448-.26-2.676.442-3.977Z" fill="#fff" fill-opacity=".2" />
                <path d="M36.19 22.787c-1.815-.912-5.672-2.42-7.44-1.537l6.75-3.75c0 1.5 1.375 2.635 3.341 2.635 2.792-.799 4.414-2.285 7.312-5.062l-2.45-.683L50 11.875c-4.332 4.587-6.878 8.232-9.833 10.47-1.346.96-2.525 1.172-3.978.442Z" fill="#D0333D" />
                <path d="M36.19 22.787c-1.815-.912-5.672-2.42-7.44-1.537l6.75-3.75c0 1.5 1.375 2.635 3.341 2.635 2.792-.799 4.414-2.285 7.312-5.062l-2.45-.683L50 11.875c-4.332 4.587-6.878 8.232-9.833 10.47-1.346.96-2.525 1.172-3.978.442Z" fill="#fff" fill-opacity=".2" />
                <path d="M47.586 3.367c-4.277 4.42-10.572 10.86-11.994 14.714l-6.842 3.17L49.991.146c-.458 3.012-1.156 4.425-2.478 6.897l.073-3.677Z" fill="#D0333D" />
                <path d="M47.586 3.367c-4.277 4.42-10.572 10.86-11.994 14.714l-6.842 3.17L49.991.146c-.458 3.012-1.156 4.425-2.478 6.897l.073-3.677Z" fill="#000" fill-opacity=".2" />
                <path d="M32.044 14.558c2.942-.722 9.459-6.836 14.679-11.959l-3.672.069C45.69 1.267 47.179.569 49.936.202L28.75 21.25l3.294-6.692Z" fill="#D0333D" />
                <path d="M32.044 14.558c2.942-.722 9.459-6.836 14.679-11.959l-3.672.069C45.69 1.267 47.179.569 49.936.202L28.75 21.25l3.294-6.692Z" fill="#fff" fill-opacity=".4" />
                <path d="M43.689 14.404c2.322-1.562 3.701-2.147 6.35-2.568l-3.889 3.24-2.461-.672Z" fill="#D0333D" />
                <path d="M43.689 14.404c2.322-1.562 3.701-2.147 6.35-2.568l-3.889 3.24-2.461-.672Z" fill="#fff" fill-opacity=".6" />
                <path d="m35.747 6.435-.683-2.45L38.125 0c-.511 2.544-.957 3.958-2.378 6.435Z" fill="#D0333D" />
                <path d="m35.747 6.435-.683-2.45L38.125 0c-.511 2.544-.957 3.958-2.378 6.435Z" fill="#fff" fill-opacity=".6" />
                <path d="M0 46.25h3.75V50H0v-3.75Z" fill="#D0333D" />
                <path d="M0 46.25h3.75V50H0v-3.75Z" fill="#fff" fill-opacity=".4" />
                <path d="M3.75 50H0l3.75-3.75V50Z" fill="#D0333D" />
                <path d="M1.25 47.5H2.5v1.25H1.25V47.5Z" fill="#D0333D" />
                <path d="M1.25 47.5H2.5v1.25H1.25V47.5Z" fill="#fff" fill-opacity=".9" />
                <path d="m2.5 47.5-1.25 1.25H2.5V47.5Z" fill="#D0333D" />
                <path d="m2.5 47.5-1.25 1.25H2.5V47.5Z" fill="#fff" fill-opacity=".8" />
            </g>
            <path d="M23.515 37.47c-1.569-.158-3.76.834-4.515 2.03.361-.936.467-1.557 2-3 1.764-1.66 5.108-1.534 7.468-1.86 2.242-.31 3.705-1.303 4.134-1.851-.096.73-1.753 4.195-3.237 4.78-2.373.938-3.89.098-5.85-.1Z" fill="#D0333D" />
            <path d="M16.687 41.642c-.818.787-2.362 1.134-2.687.89.703.743 2.85 1.05 4.09.187 1.326-.92 1.779-.931 3.161-.378-.298-.311-.848-1.184-1.875-1.557-1.091-.395-1.814.017-2.689.858ZM4.32 37.576c-.007 1.103-.341 2.28-.676 2.471.908-.325 2.363-1.524 2.601-2.987.239-1.463-.362-2.447-.207-3.87-.383.14-1.209.91-1.557 1.633-.435.904-.152 1.374-.16 2.753Z" fill="#FAA21E" />
            <path d="M10.978 31.44c.785 1.967.013 4.864-.561 5.459.65-.406 1.803-1.712 2.219-3.808.478-2.412-.96-3.149-1.723-6.17-.725-2.87.795-5.287 1.276-5.979-.741.31-3.378 1.737-3.82 3.884-.498 2.417 1.628 4.154 2.61 6.613ZM9.761 46.401c-1.863-.419-4.331.68-4.779 1.276.268-.636 1.267-1.848 3.073-2.516 2.079-.769 2.94.406 5.737.656 2.658.237 4.66-.79 5.208-1.317-.17.703-1.134 2.584-2.982 3.283-2.08.787-3.928-.858-6.257-1.382Z" fill="#D0333D" />
        </g>
        <defs>
            <clipPath id="adia">
                <path fill="#fff" transform="matrix(-1 0 0 1 50 0)" d="M0 0h50v50H0z" />
            </clipPath>
            <clipPath id="adib">
                <path fill="#fff" d="M0 0h50v50H0z" />
            </clipPath>
        </defs>
    </symbol>
    <symbol fill="none" viewBox="0 0 50 50" id="blooming_trident">
        <g clip-path="url(#adka)">
            <g clip-path="url(#adkb)">
                <path d="m29.375 18.75 1.875 1.875L3.125 48.75 1.25 46.875 29.375 18.75Z" fill="#2FC4A7" />
                <path d="m29.375 18.75 1.875 1.875L3.125 48.75 1.25 46.875 29.375 18.75Z" fill="#000" fill-opacity=".2" />
                <path d="m29.375 18.75.935.935L2.185 47.81l-.935-.935L29.375 18.75Z" fill="#2FC4A7" />
                <path d="m29.375 18.75.935.935L2.185 47.81l-.935-.935L29.375 18.75Z" fill="#fff" fill-opacity=".4" />
                <path d="M27.792 9.97C29.493 7.737 32.55 5.2 38.125 0l-2.378 6.435-.683-2.45c-2.863 3.073-4.385 4.776-5.062 7.312 0 1.828.998 3.703 2.498 3.203l-3.75 6.75c.884-1.768-.725-5.247-1.4-7.302-.475-1.448-.26-2.676.442-3.977Z" fill="#2FC4A7" />
                <path d="M27.792 9.97C29.493 7.737 32.55 5.2 38.125 0l-2.378 6.435-.683-2.45c-2.863 3.073-4.385 4.776-5.062 7.312 0 1.828.998 3.703 2.498 3.203l-3.75 6.75c.884-1.768-.725-5.247-1.4-7.302-.475-1.448-.26-2.676.442-3.977Z" fill="#fff" fill-opacity=".2" />
                <path d="M36.19 22.787c-1.815-.912-5.672-2.42-7.44-1.537l6.75-3.75c0 1.5 1.375 2.635 3.341 2.635 2.792-.799 4.414-2.285 7.312-5.062l-2.45-.683L50 11.875c-4.332 4.587-6.878 8.232-9.833 10.47-1.346.96-2.525 1.172-3.978.442Z" fill="#2FC4A7" />
                <path d="M36.19 22.787c-1.815-.912-5.672-2.42-7.44-1.537l6.75-3.75c0 1.5 1.375 2.635 3.341 2.635 2.792-.799 4.414-2.285 7.312-5.062l-2.45-.683L50 11.875c-4.332 4.587-6.878 8.232-9.833 10.47-1.346.96-2.525 1.172-3.978.442Z" fill="#fff" fill-opacity=".2" />
                <path d="M47.586 3.367c-4.277 4.42-10.572 10.86-11.994 14.714l-6.842 3.17L49.991.146c-.458 3.012-1.156 4.425-2.478 6.897l.073-3.677Z" fill="#2FC4A7" />
                <path d="M47.586 3.367c-4.277 4.42-10.572 10.86-11.994 14.714l-6.842 3.17L49.991.146c-.458 3.012-1.156 4.425-2.478 6.897l.073-3.677Z" fill="#000" fill-opacity=".2" />
                <path d="M32.044 14.558c2.942-.722 9.459-6.836 14.679-11.959l-3.672.069C45.69 1.267 47.179.569 49.936.202L28.75 21.25l3.294-6.692Z" fill="#2FC4A7" />
                <path d="M32.044 14.558c2.942-.722 9.459-6.836 14.679-11.959l-3.672.069C45.69 1.267 47.179.569 49.936.202L28.75 21.25l3.294-6.692Z" fill="#fff" fill-opacity=".4" />
                <path d="M43.689 14.404c2.322-1.562 3.701-2.147 6.35-2.568l-3.889 3.24-2.461-.672Z" fill="#2FC4A7" />
                <path d="M43.689 14.404c2.322-1.562 3.701-2.147 6.35-2.568l-3.889 3.24-2.461-.672Z" fill="#fff" fill-opacity=".6" />
                <path d="m35.747 6.435-.683-2.45L38.125 0c-.511 2.544-.957 3.958-2.378 6.435Z" fill="#2FC4A7" />
                <path d="m35.747 6.435-.683-2.45L38.125 0c-.511 2.544-.957 3.958-2.378 6.435Z" fill="#fff" fill-opacity=".6" />
                <path d="M0 46.25h3.75V50H0v-3.75Z" fill="#2FC4A7" />
                <path d="M0 46.25h3.75V50H0v-3.75Z" fill="#fff" fill-opacity=".4" />
                <path d="M3.75 50H0l3.75-3.75V50Z" fill="#2FC4A7" />
                <path d="M1.25 47.5H2.5v1.25H1.25V47.5Z" fill="#2FC4A7" />
                <path d="M1.25 47.5H2.5v1.25H1.25V47.5Z" fill="#fff" fill-opacity=".95" />
                <path d="m2.5 47.5-1.25 1.25H2.5V47.5Z" fill="#2FC4A7" />
                <path d="m2.5 47.5-1.25 1.25H2.5V47.5Z" fill="#fff" fill-opacity=".8" />
            </g>
            <path d="M28.78 30.328c1.886-.014 2.836.922 2.85 2.808-1.886.014-2.836-.922-2.85-2.808Z" fill="#2FC4A7" />
            <path d="M28.78 30.328c1.886-.014 2.836.922 2.85 2.808-1.886.014-2.836-.922-2.85-2.808Z" fill="#000" fill-opacity=".2" />
            <path d="M17.974 36.186c.75-2.109 2.134-2.679 4.153-1.71-.75 2.108-2.135 2.678-4.153 1.71Z" fill="#2FC4A7" />
            <path d="M17.974 36.186c.75-2.109 2.134-2.679 4.153-1.71-.75 2.108-2.135 2.678-4.153 1.71Z" fill="#000" fill-opacity=".2" />
            <path d="M9.254 44.742c.665 1.296.335 2.247-.989 2.854-.665-1.296-.335-2.247.99-2.854Z" fill="#2FC4A7" />
            <path d="M9.254 44.742c.665 1.296.335 2.247-.989 2.854-.665-1.296-.335-2.247.99-2.854Z" fill="#000" fill-opacity=".2" />
            <path d="M40.761 14.785c1.399.209 1.994 1.012 1.785 2.411-1.399-.209-1.994-1.012-1.785-2.411Z" fill="#2FC4A7" />
            <path d="M40.761 14.785c1.399.209 1.994 1.012 1.785 2.411-1.399-.209-1.994-1.012-1.785-2.411Z" fill="#000" fill-opacity=".2" />
            <path d="M15.271 30.176c.982-1.605 2.249-1.874 3.8-.808-.983 1.605-2.25 1.875-3.8.808Z" fill="#2FC4A7" />
            <path d="M15.271 30.176c.982-1.605 2.249-1.874 3.8-.808-.983 1.605-2.25 1.875-3.8.808Z" fill="#000" fill-opacity=".2" />
            <path d="M16.437 43.88c1.743-.72 2.974-.209 3.694 1.535-1.743.719-2.974.207-3.694-1.536Z" fill="#2FC4A7" />
            <path d="M16.437 43.88c1.743-.72 2.974-.209 3.694 1.535-1.743.719-2.974.207-3.694-1.536Z" fill="#fff" fill-opacity=".4" />
            <path d="M16.003 45.175c1.076.918 1.155 1.915.237 2.99-1.075-.917-1.154-1.914-.236-2.99Z" fill="#2FC4A7" />
            <path d="M16.003 45.175c1.076.918 1.155 1.915.237 2.99-1.075-.917-1.154-1.914-.236-2.99Z" fill="#fff" fill-opacity=".4" />
            <path d="M20.276 24.372c-1.45-.323-1.893-1.171-1.328-2.545 1.45.322 1.893 1.17 1.328 2.544Z" fill="#2FC4A7" />
            <path d="M20.276 24.372c-1.45-.323-1.893-1.171-1.328-2.545 1.45.322 1.893 1.17 1.328 2.544Z" fill="#fff" fill-opacity=".4" />
            <path d="M22.672 16.42c.744-1.203 1.717-1.433 2.92-.69-.743 1.203-1.716 1.433-2.92.69Z" fill="#2FC4A7" />
            <path d="M22.672 16.42c.744-1.203 1.717-1.433 2.92-.69-.743 1.203-1.716 1.433-2.92.69Z" fill="#fff" fill-opacity=".4" />
            <path d="M16.847 40.437c-.828 1.147-1.815 1.306-2.962.479.828-1.147 1.815-1.306 2.962-.479Z" fill="#2FC4A7" />
            <path d="M16.847 40.437c-.828 1.147-1.815 1.306-2.962.479.828-1.147 1.815-1.306 2.962-.479Z" fill="#fff" fill-opacity=".4" />
            <path d="M20.073 39.724c-1.413-.067-2.085-.807-2.018-2.22 1.413.068 2.085.808 2.018 2.22Z" fill="#2FC4A7" />
            <path d="M20.073 39.724c-1.413-.067-2.085-.807-2.018-2.22 1.413.068 2.085.808 2.018 2.22Z" fill="#fff" fill-opacity=".4" />
            <path d="M31.297 24.919c.271 1.387-.287 2.217-1.675 2.489-.271-1.388.287-2.218 1.675-2.49Z" fill="#2FC4A7" />
            <path d="M31.297 24.919c.271 1.387-.287 2.217-1.675 2.489-.271-1.388.287-2.218 1.675-2.49Z" fill="#fff" fill-opacity=".4" />
            <path d="M34.385 11.176c-.235.234-.875.396-1.167.103-.292-.294-.125-.933.11-1.167.235-.233.662-.185.954.11.292.293.338.72.103.954Z" fill="#D0333D" />
            <path d="M34.385 11.176c-.235.234-.875.396-1.167.103-.292-.294-.125-.933.11-1.167.235-.233.662-.185.954.11.292.293.338.72.103.954Z" fill="#fff" fill-opacity=".8" />
            <path d="M26.097 29.682c-.331.006-.905-.32-.912-.735-.007-.414.555-.76.887-.765.331-.005.605.326.613.74.007.414-.256.754-.588.76Z" fill="#D0333D" />
            <path d="M26.097 29.682c-.331.006-.905-.32-.912-.735-.007-.414.555-.76.887-.765.331-.005.605.326.613.74.007.414-.256.754-.588.76Z" fill="#fff" fill-opacity=".8" />
            <path d="M5.746 39.554c-.094.318-.578.767-.975.65-.397-.118-.557-.759-.463-1.077.094-.317.493-.48.89-.361.397.117.642.47.548.788Z" fill="#D0333D" />
            <path d="M5.746 39.554c-.094.318-.578.767-.975.65-.397-.118-.557-.759-.463-1.077.094-.317.493-.48.89-.361.397.117.642.47.548.788Z" fill="#fff" fill-opacity=".8" />
            <path d="M19.276 24.304c.319.168.708.753.515 1.12-.193.366-.896.375-1.215.207-.318-.168-.42-.601-.226-.968.193-.366.608-.527.926-.359Z" fill="#D0333D" />
            <path d="M19.276 24.304c.319.168.708.753.515 1.12-.193.366-.896.375-1.215.207-.318-.168-.42-.601-.226-.968.193-.366.608-.527.926-.359Z" fill="#fff" fill-opacity=".8" />
            <path d="M28.06 35.378c-.205-.243-.329-.855-.046-1.093.282-.24.864-.015 1.07.229.206.243.143.634-.14.873-.282.238-.678.234-.883-.009Z" fill="#D0333D" />
            <path d="M28.06 35.378c-.205-.243-.329-.855-.046-1.093.282-.24.864-.015 1.07.229.206.243.143.634-.14.873-.282.238-.678.234-.883-.009Z" fill="#fff" fill-opacity=".8" />
            <path d="M45.5 2.6c0 6.1-4.4 13.5-8 13.9C33 17 32.869 7 30 7c-1.5 0-2 1.6-1.5 2.1m1.6 2.4c-2 0-3.6 3-2.6 3.5m4-.6c-.5 1-1.5 2.1-2 4.6-.374 1.869 0 15.5-2.5 15.5-1.803 0-2-6.6-2.5-7.1m-.5-3.3c-1-1-3-1.1-4 1.9-.707 2.121-2.5 21-6.5 21-3 0-4-3.6-4.5-4.1m-2.2-1.55c-.5-.5-2.986-1.164-4.3.15C1 43 1.4 45.75 1.4 46.25" stroke="#2FC4A7" />
            <path d="M45.5 2.6c0 6.1-4.4 13.5-8 13.9C33 17 32.869 7 30 7c-1.5 0-2 1.6-1.5 2.1m1.6 2.4c-2 0-3.6 3-2.6 3.5m4-.6c-.5 1-1.5 2.1-2 4.6-.374 1.869 0 15.5-2.5 15.5-1.803 0-2-6.6-2.5-7.1m-.5-3.3c-1-1-3-1.1-4 1.9-.707 2.121-2.5 21-6.5 21-3 0-4-3.6-4.5-4.1m-2.2-1.55c-.5-.5-2.986-1.164-4.3.15C1 43 1.4 45.75 1.4 46.25" stroke="#000" stroke-opacity=".4" />
            <path d="M27.373 13.458c.243-1.9-.585-2.97-2.484-3.213-.243 1.9.585 2.97 2.484 3.213Z" fill="#2FC4A7" />
            <path d="M27.373 13.458c.243-1.9-.585-2.97-2.484-3.213-.243 1.9.585 2.97 2.484 3.213Z" fill="#000" fill-opacity=".4" />
            <path d="M29.467 6.676c.806-1.188.615-2.185-.573-2.991-.806 1.188-.615 2.185.573 2.991Z" fill="#2FC4A7" />
            <path d="M29.467 6.676c.806-1.188.615-2.185-.573-2.991-.806 1.188-.615 2.185.573 2.991Z" fill="#000" fill-opacity=".2" />
            <path d="M26.052 13.909a.5.5 0 0 1 .896 0l.17.344a.5.5 0 0 0 .377.274l.38.055a.5.5 0 0 1 .277.853l-.275.268a.5.5 0 0 0-.144.442l.065.379a.5.5 0 0 1-.725.527l-.34-.179a.5.5 0 0 0-.466 0l-.34.18a.5.5 0 0 1-.725-.528l.065-.379a.5.5 0 0 0-.144-.442l-.275-.268a.5.5 0 0 1 .277-.853l.38-.056a.5.5 0 0 0 .377-.273l.17-.345Z" fill="#D0333D" />
            <path d="M26.052 13.909a.5.5 0 0 1 .896 0l.17.344a.5.5 0 0 0 .377.274l.38.055a.5.5 0 0 1 .277.853l-.275.268a.5.5 0 0 0-.144.442l.065.379a.5.5 0 0 1-.725.527l-.34-.179a.5.5 0 0 0-.466 0l-.34.18a.5.5 0 0 1-.725-.528l.065-.379a.5.5 0 0 0-.144-.442l-.275-.268a.5.5 0 0 1 .277-.853l.38-.056a.5.5 0 0 0 .377-.273l.17-.345Z" fill="#fff" fill-opacity=".9" />
            <circle cx="26.5" cy="15.5" r=".5" fill="#D0333D" />
            <circle cx="26.5" cy="15.5" r=".5" fill="#fff" fill-opacity=".4" />
            <path d="M30.584 26.467a.5.5 0 0 1 .729.521l-.063.38a.5.5 0 0 0 .147.441l.277.266a.5.5 0 0 1-.27.855l-.38.058a.5.5 0 0 0-.375.276l-.168.346a.5.5 0 0 1-.896.006l-.173-.343a.5.5 0 0 0-.378-.27l-.38-.053a.5.5 0 0 1-.284-.851l.273-.27a.5.5 0 0 0 .141-.444l-.068-.378a.5.5 0 0 1 .722-.532l.341.176a.5.5 0 0 0 .466-.003l.338-.181Z" fill="#D0333D" />
            <path d="M30.584 26.467a.5.5 0 0 1 .729.521l-.063.38a.5.5 0 0 0 .147.441l.277.266a.5.5 0 0 1-.27.855l-.38.058a.5.5 0 0 0-.375.276l-.168.346a.5.5 0 0 1-.896.006l-.173-.343a.5.5 0 0 0-.378-.27l-.38-.053a.5.5 0 0 1-.284-.851l.273-.27a.5.5 0 0 0 .141-.444l-.068-.378a.5.5 0 0 1 .722-.532l.341.176a.5.5 0 0 0 .466-.003l.338-.181Z" fill="#fff" fill-opacity=".9" />
            <circle cx="30.022" cy="28.022" r=".5" transform="rotate(35.591 30.022 28.022)" fill="#D0333D" />
            <circle cx="30.022" cy="28.022" r=".5" transform="rotate(35.591 30.022 28.022)" fill="#fff" fill-opacity=".4" />
            <path d="M15.225 42.762a.5.5 0 0 1 .888-.124l.216.318a.5.5 0 0 0 .41.218l.385.002a.5.5 0 0 1 .393.806l-.235.304a.5.5 0 0 0-.081.458l.116.366a.5.5 0 0 1-.645.623l-.361-.13a.5.5 0 0 0-.461.065l-.312.224a.5.5 0 0 1-.792-.422l.012-.383a.5.5 0 0 0-.204-.419l-.31-.227a.5.5 0 0 1 .156-.883l.37-.108a.5.5 0 0 0 .334-.323l.12-.365Z" fill="#D0333D" />
            <path d="M15.225 42.762a.5.5 0 0 1 .888-.124l.216.318a.5.5 0 0 0 .41.218l.385.002a.5.5 0 0 1 .393.806l-.235.304a.5.5 0 0 0-.081.458l.116.366a.5.5 0 0 1-.645.623l-.361-.13a.5.5 0 0 0-.461.065l-.312.224a.5.5 0 0 1-.792-.422l.012-.383a.5.5 0 0 0-.204-.419l-.31-.227a.5.5 0 0 1 .156-.883l.37-.108a.5.5 0 0 0 .334-.323l.12-.365Z" fill="#fff" fill-opacity=".9" />
            <circle cx="15.889" cy="44.276" r=".5" transform="rotate(-7.979 15.89 44.276)" fill="#D0333D" />
            <circle cx="15.889" cy="44.276" r=".5" transform="rotate(-7.979 15.89 44.276)" fill="#fff" fill-opacity=".4" />
            <path d="M23.553 42.632c-.203-.261-.288-.916.039-1.171.326-.255.94-.012 1.144.249.204.261.104.68-.222.934-.327.255-.757.25-.96-.012Z" fill="#D0333D" />
            <path d="M23.553 42.632c-.203-.261-.288-.916.039-1.171.326-.255.94-.012 1.144.249.204.261.104.68-.222.934-.327.255-.757.25-.96-.012Z" fill="#fff" fill-opacity=".6" />
            <path d="M41.863 37.694c-.318-.094-.768-.578-.65-.975s.759-.557 1.076-.463c.318.094.48.492.362.89-.118.397-.47.642-.788.548Z" fill="#D0333D" />
            <path d="M41.863 37.694c-.318-.094-.768-.578-.65-.975s.759-.557 1.076-.463c.318.094.48.492.362.89-.118.397-.47.642-.788.548Z" fill="#fff" fill-opacity=".6" />
            <path d="M24.783 3.276c-.168.319-.753.708-1.12.515-.366-.193-.375-.896-.207-1.215.168-.318.601-.42.968-.226.366.193.527.608.359.926Z" fill="#D0333D" />
            <path d="M24.783 3.276c-.168.319-.753.708-1.12.515-.366-.193-.375-.896-.207-1.215.168-.318.601-.42.968-.226.366.193.527.608.359.926Z" fill="#fff" fill-opacity=".6" />
            <path d="M9.44 27.559c.244-.206.856-.33 1.094-.047.239.282.015.864-.229 1.07-.243.206-.634.143-.873-.14-.239-.282-.235-.678.009-.883Z" fill="#D0333D" />
            <path d="M9.44 27.559c.244-.206.856-.33 1.094-.047.239.282.015.864-.229 1.07-.243.206-.634.143-.873-.14-.239-.282-.235-.678.009-.883Z" fill="#fff" fill-opacity=".6" />
        </g>
        <defs>
            <clipPath id="adka">
                <path fill="#fff" transform="matrix(-1 0 0 1 50 0)" d="M0 0h50v50H0z" />
            </clipPath>
            <clipPath id="adkb">
                <path fill="#fff" d="M0 0h50v50H0z" />
            </clipPath>
        </defs>
    </symbol>
    <symbol fill="none" viewBox="0 0 50 50" id="chaotic_flail">
        <g clip-path="url(#afva)">
            <path d="M20 7.5c4-12 14.5-6 17.5 2s3 13.5 0 20" stroke="#D0333D" stroke-width="2" />
            <path d="M21.374 4.922c-.789-.333-1.976-1.051-2.348-1.317L7.246 31.499l4.928 2.082 11.78-27.894c-.53-.117-1.791-.432-2.58-.765Z" fill="#898989" />
            <path d="M21.374 4.922c-.789-.333-1.976-1.051-2.348-1.317L7.246 31.499l4.928 2.082 11.78-27.894c-.53-.117-1.791-.432-2.58-.765Z" fill="#fff" fill-opacity=".2" />
            <path d="m12.693 35.102-6.9-2.914L.02 45.855l.702 2.308 4.27 1.804 2.145-1.106 5.555-13.759Z" fill="#898989" />
            <path d="m12.693 35.102-6.9-2.914L.02 45.855l.702 2.308 4.27 1.804 2.145-1.106 5.555-13.759Z" fill="#fff" fill-opacity=".2" />
            <path d="m30.922 49.906 2.724-4.114-2.714-.82-.01 4.934ZM42.51 49.951l-5.803-6.937 3.24-1.736 2.563 8.673ZM30.109 40.674l-1.815-3.387-6.54 6.223 8.355-2.836ZM40.396 30.8l1.669 3.466 5.826-5.397-7.495 1.931ZM33.61 28.75l-3.733 2.002-1.89-7.897 5.624 5.895ZM25.18 34.596l-4.634-2.634 5.386.146-.751 2.488ZM44.406 40.404l.752-2.488 4.792 2.929-5.544-.441Z" fill="#D0333D" />
            <path fill-rule="evenodd" clip-rule="evenodd" d="M43.617 38.931c-.492 1.629-1.748 2.77-2.163 3.056-.067-.597-.42-1.86-1.325-2.134-1.131-.341-4.105 1.063-4.515 2.42-.314 1.04.516 2.002 1.006 2.411l.06.05c-.822-.001-2.783-.1-4.05-.483-1.187-.358-2.351-1.253-2.932-1.7l-.108-.082.003-.001c.545-.165 1.62-.492 1.893-1.395.342-1.13-1.455-4.52-2.609-4.868-1.134-.343-1.53.068-1.942.497-.092.095-.184.191-.286.28-.01-.06-.02-.123-.032-.187-.118-.676-.272-1.56.183-3.067.36-1.192.862-2.07 1.272-2.79.159-.278.303-.532.421-.772.062.115.128.255.2.408.298.628.696 1.467 1.279 1.643.904.274 4.665-1.552 5.007-2.683.273-.905-.483-2.08-.89-2.367.544-.165 2.038-.372 3.666.12 1.629.492 2.758 1.492 3.12 1.93-.446.112-1.404.563-1.678 1.468-.342 1.13 1.553 4.665 2.457 4.938.724.22 1.782-.449 2.22-.81.12.694.235 2.49-.257 4.118Zm-7.95-5.28a2.204 2.204 0 1 0-1.275 4.221 2.204 2.204 0 0 0 1.275-4.22Z" fill="#D0333D" />
            <path d="M43.168 38.532c-.367 1.214-.942 2.08-1.329 2.347-.062-.556-.697-1.33-1.494-1.705-1.553-.73-5.164 1.206-5.417 2.903-.155 1.045.164 1.829.592 2.188-1.144.033-2.077-.249-2.531-.386-.454-.137-1.628-.87-1.87-1.322.506-.153 1.354-.725 1.08-2.321-.187-1.085-1.243-3.402-2.178-4.063-.935-.66-1.87-1.321-2.982-.144-.108-.653.271-2.152.386-2.531.114-.38.419-1.387.87-1.629.484.903 1.177 1.112 1.87 1.322.844.255 4.547-1.275 5.417-2.903.625-1.17.072-2.473-.307-2.74.507-.154 1.145-.033 2.269.491 1.196.558 1.796.808 2.133 1.216-.416.105-1.317.946-1.08 2.322.274 1.596 1.663 4.062 2.419 4.514.72.43 1.387.418 2.29-.065.11.647.253 1.211-.138 2.506Z" fill="#D0333D" />
            <path d="M43.168 38.532c-.367 1.214-.942 2.08-1.329 2.347-.062-.556-.697-1.33-1.494-1.705-1.553-.73-5.164 1.206-5.417 2.903-.155 1.045.164 1.829.592 2.188-1.144.033-2.077-.249-2.531-.386-.454-.137-1.628-.87-1.87-1.322.506-.153 1.354-.725 1.08-2.321-.187-1.085-1.243-3.402-2.178-4.063-.935-.66-1.87-1.321-2.982-.144-.108-.653.271-2.152.386-2.531.114-.38.419-1.387.87-1.629.484.903 1.177 1.112 1.87 1.322.844.255 4.547-1.275 5.417-2.903.625-1.17.072-2.473-.307-2.74.507-.154 1.145-.033 2.269.491 1.196.558 1.796.808 2.133 1.216-.416.105-1.317.946-1.08 2.322.274 1.596 1.663 4.062 2.419 4.514.72.43 1.387.418 2.29-.065.11.647.253 1.211-.138 2.506Z" fill="#000" fill-opacity=".2" />
        </g>
        <defs>
            <clipPath id="afva">
                <path fill="#fff" d="M0 0h50v50H0z" />
            </clipPath>
        </defs>
    </symbol>
    <symbol fill="none" viewBox="0 0 50 50" id="cursed_bow">
        <g clip-path="url(#ajpa)">
            <path d="M47 3 3 47" stroke="#FAA21E" stroke-linecap="round" />
            <path d="M47 3 3 47" stroke="#000" stroke-opacity=".1" stroke-linecap="round" />
            <path d="M1.994 45.72C1.197 47.108.332 48.768 0 49.924c.499-.578 1.53-1.503 2.992-1.891 2.008-.533 2.991-.578 4.487 0s4.024 2.47 5.021 1.891c.997-.578.962-.313 1.96-4.36.996-4.047 4.985-4.047 6.481-3.47 1.496.579 7.063 3.14 8.559 1.406 1.197-1.388.582-6.995.416-9.5-.333 1.542-1.82 3.612-3.416 5-1.994 1.735-10.046.204-11.542 1.36-1.496 1.157-2.96 4.204-3.958 5.36-.997 1.157-8.008-1.734-9.006 0ZM45.696 1.994C47.081 1.197 48.738.332 49.892 0c-.577.499-1.5 1.53-1.888 2.992-.531 2.008-.576 2.991 0 4.487.577 1.496 2.465 4.024 1.888 5.021-.577.997-.313.962-4.352 1.96-4.039.996-4.039 4.985-3.462 6.481.577 1.496 3.653 7.063 1.922 8.559-1.385 1.197-7.5.582-10 .416 1.539-.333 3.605-1.82 4.99-3.416 1.73-1.994.203-10.046 1.357-11.542 1.154-1.496 4.195-2.96 5.35-3.958 1.153-.997-1.732-8.008 0-9.006Z" fill="#FAA21E" />
            <path d="M45.5 2C46.7 1.2 49 .333 50 0c-.5.5-1.7 1.8-2.5 3-1 1.5-.5 3 0 4.5s3 4 2.5 5-2 1-5.5 2-3.5 5-3 6.5 2.5 6.5 1 8c-1.2 1.2-5.833 1.167-8 1 1.333-.333 4.3-1.4 5.5-3 1.5-2-1-10.5 0-12s6-2.5 7-3.5S44 3 45.5 2ZM1.994 45.307C1.197 46.54.332 48.904 0 49.932c.499-.514 1.795-1.747 2.992-2.57 1.495-1.027 2.991-.513 4.487 0 1.496.515 3.989 3.084 4.986 2.57.997-.514.997-2.055 1.994-5.653.997-3.598 4.986-3.598 6.482-3.084 1.496.514 6.482 2.57 7.978 1.028 1.196-1.233 1.163-5.996.997-8.223-.333 1.37-1.396 4.42-2.992 5.653-1.994 1.542-10.47-1.027-11.966 0-1.496 1.028-2.493 6.168-3.49 7.196-.998 1.028-8.476-3.084-9.474-1.542Z" fill="#FEFEFE" />
            <circle cx="6.5" cy="6.5" r="6.5" transform="matrix(-1 0 0 1 41 28)" fill="#D0333D" />
            <circle cx="6.5" cy="6.5" r="6.5" transform="matrix(-1 0 0 1 41 28)" fill="#000" fill-opacity=".6" />
            <path fill-rule="evenodd" clip-rule="evenodd" d="M28 34.5a6.5 6.5 0 1 0 13 0 6.5 6.5 0 0 0-13 0Zm3.383-4.808c1.336-.178 2.226 1.424 2.494 2.85.3 1.602-1.87 3.472-2.494 3.472-.623 0-1.513-1.781-1.691-3.028-.178-1.246.356-3.116 1.691-3.294Zm4.476 3.498c.9-1.162 2.587-1.81 3.805-1.005 1.218.805.55 2.661-.184 3.705-.732 1.043-3.021 1.99-3.912 1.548-.605-.3-.86-2.76.291-4.248Zm-1.537 3.002c-.143-.285-.06-1.365 0-1.87-.178 0-.713.623-.98.98-.213.284-.445.95-.534 1.246h.801l.89.623c0-.207-.035-.694-.177-.98Zm-5.26-1.755c.17-.185-.051-1.245-.233-1.327-.182-.082-.56 1.538-.383 1.53.143-.005.47-.138.616-.203Zm.585 1.224c.09.164.363.362.625.552.293.212.573.416.579.557-.044.152-.287.284-.505.403-.17.093-.324.177-.36.256-.037.083.026.33.088.574.073.29.146.575.05.579-.179.007-1.216-1.376-1.327-1.906-.11-.53-.247-1.683.105-1.787.3-.088.489.279.657.605l.088.167Zm10.033 1.28c-.104.361-.378 1.192-.645 1.631-.334.549-.935 1.108-1.117 1.026-.181-.081-.51-1.146-.428-1.328.042-.094.188-.118.354-.146.155-.025.328-.054.453-.145a3.2 3.2 0 0 0 .318-.31c.338-.356.804-.845 1.065-.727Zm-2.58 1.2c.27.077.12 1.78 0 1.82-.21.067-1.268-1.17-1.17-1.389.194-.432.871-.479 1.17-.432Zm-1.802.585c.178-.008 1.101.947.971 1.322-.092.267-.902.368-1.172.29-.27-.078.023-1.605.2-1.612Zm-.834-.768c.275.167.296.7.311 1.057.015.355-.123 1.341-.301 1.349-.178.007-.982-.049-.993-.316-.011-.267.716-2.08.983-2.09Zm-2.15 1.87c-.19-.259.698-2.523 1.057-2.449.136-.005.229.199.308.373.024.054.047.105.07.146.096.174-.454 1.98-.713 2.168-.26.19-.534.022-.723-.237Zm.242-2.772c-.19-.26-1.858.344-1.94.525-.08.182-.03 1.427.43 1.765.46.338.637.33.726.327.09-.004 1.069-2.183.784-2.617Z" fill="#D0333D" />
        </g>
        <defs>
            <clipPath id="ajpa">
                <path fill="#fff" transform="matrix(-1 0 0 1 50 0)" d="M0 0h50v50H0z" />
            </clipPath>
        </defs>
    </symbol>
    <symbol fill="none" viewBox="0 0 50 50" id="furious_spear">
        <g clip-path="url(#amda)">
            <path d="m28.5 20 1.5 1.5L1.993 50.022H0V48l28.5-28Z" fill="#FAA21E" />
            <path d="M40.706 18.379c-.03-1.147.908-1.79 1.38-1.97-.18.378-.64 1.12-.622 1.807.023.86.608 1.822 0 2.429-.607.607-1.214.607-2.27.13.105.384-.3.686-.765.477-.812-.365-.901-1.136-.911-1.518.303.91 1.243.943 1.219.026-.03-1.147-2.787-2.508-4.322-.973-1.229 1.229-.153 3.29.538 4.168-.877-.691-2.939-1.767-4.167-.539-.895.894-.59 2.231-.25 2.479-.522.13-1.518-.91-3.036 0-.896.537-2.282.147-2.429 0l7.67-7.604 6.598-.593H40.554h-.005c-.292.008-1.224 1.423-.96 2.797.332 1.728 1.154.317 1.117-1.116Z" fill="#898989" />
            <path d="M40.706 18.379c-.03-1.147.908-1.79 1.38-1.97-.18.378-.64 1.12-.622 1.807.023.86.608 1.822 0 2.429-.607.607-1.214.607-2.27.13.105.384-.3.686-.765.477-.812-.365-.901-1.136-.911-1.518.303.91 1.243.943 1.219.026-.03-1.147-2.787-2.508-4.322-.973-1.229 1.229-.153 3.29.538 4.168-.877-.691-2.939-1.767-4.167-.539-.895.894-.59 2.231-.25 2.479-.522.13-1.518-.91-3.036 0-.896.537-2.282.147-2.429 0l7.67-7.604 6.598-.593H40.554h-.005c-.292.008-1.224 1.423-.96 2.797.332 1.728 1.154.317 1.117-1.116Z" fill="#fff" fill-opacity=".4" />
            <path d="M31.587 9.26c1.147.03 1.79-.908 1.97-1.38-.378.18-1.119.64-1.807.622-.86-.023-1.822-.607-2.429 0-.607.607-.607 1.214-.129 2.271-.385-.105-.687.3-.478.765.365.811 1.136.9 1.518.91-.91-.303-.943-1.243-.025-1.219 1.146.03 2.507 2.787.972 4.323-1.228 1.228-3.29.152-4.168-.54.692.878 1.767 2.94.54 4.168-.895.895-2.232.591-2.48.25-.13.522.911 1.518 0 3.036-.537.896-.147 2.282 0 2.429l7.67-7.604.527-6.664V9.413v.004c-.008.292-1.423 1.224-2.797.96-1.728-.332-.317-1.154 1.116-1.117Z" fill="#898989" />
            <path d="M31.587 9.26c1.147.03 1.79-.908 1.97-1.38-.378.18-1.119.64-1.807.622-.86-.023-1.822-.607-2.429 0-.607.607-.607 1.214-.129 2.271-.385-.105-.687.3-.478.765.365.811 1.136.9 1.518.91-.91-.303-.943-1.243-.025-1.219 1.146.03 2.507 2.787.972 4.323-1.228 1.228-3.29.152-4.168-.54.692.878 1.767 2.94.54 4.168-.895.895-2.232.591-2.48.25-.13.522.911 1.518 0 3.036-.537.896-.147 2.282 0 2.429l7.67-7.604.527-6.664V9.413v.004c-.008.292-1.423 1.224-2.797.96-1.728-.332-.317-1.154 1.116-1.117Z" fill="#fff" fill-opacity=".95" />
            <path d="M31.75 18.216 49.965 0c-1.075 1.75-3.93 5.954-6.754 8.778-2.824 2.824-3.793 6.491-3.871 7.919l-7.59 1.518Z" fill="#898989" />
            <path d="M31.75 18.216 49.965 0c-1.075 1.75-3.93 5.954-6.754 8.778-2.824 2.824-3.793 6.491-3.871 7.919l-7.59 1.518Z" fill="#fff" fill-opacity=".4" />
            <path d="M31.75 18.216 49.965 0c-1.75 1.075-5.954 3.93-8.778 6.754-2.824 2.824-6.491 3.793-7.919 3.872l-1.518 7.589Z" fill="#898989" />
            <path d="M31.75 18.216 49.965 0c-1.75 1.075-5.954 3.93-8.778 6.754-2.824 2.824-6.491 3.793-7.919 3.872l-1.518 7.589Z" fill="#fff" fill-opacity=".95" />
            <g clip-path="url(#amdb)">
                <path d="m31.447 17.034.364-1.092 2.186 2.185-1.093.364-1.457-1.457Z" fill="#FAA21E" />
                <path d="m31.447 17.034.364-1.092 2.186 2.185-1.093.364-1.457-1.457Z" fill="#000" fill-opacity=".1" />
                <path d="m32.904 18.491 1.093-.364-.729 3.157-.91-.91.546-1.883Z" fill="#FAA21E" />
                <path d="m31.447 17.034.364-1.092-3.157.728.91.91 1.883-.546ZM28.42 21.518l3.938-1.144.91.91-6.435 1.822 1.588-1.588Z" fill="#C57A09" />
                <path d="m30.475 20.92 1.883-.546.789.789c-.364-.243-.563-.39-.85-.486-.288-.096-1.295.162-1.822.243Z" fill="#FAA21E" />
                <path d="m30.475 20.92 1.883-.546.789.789c-.364-.243-.563-.39-.85-.486-.288-.096-1.295.162-1.822.243Z" fill="#fff" fill-opacity=".95" />
                <path d="m29.564 17.58-.91-.91-1.822 6.436 1.588-1.588 1.144-3.937Z" fill="#FAA21E" />
                <path d="m29.564 17.58-.91-.91-1.822 6.436 1.588-1.588 1.144-3.937Z" fill="#fff" fill-opacity=".2" />
                <path d="m32.904 18.491-1.457-1.457-1.883.547-1.153 3.946 3.946-1.153.547-1.883Z" fill="#FAA21E" />
                <path d="m32.904 18.491-1.457-1.457-1.883.547-1.153 3.946 3.946-1.153.547-1.883Z" fill="#fff" fill-opacity=".4" />
                <path d="m31.447 17.034-1.883.547c.419-.122 1.356-.328 1.761-.182.405.145 1.221.789 1.579 1.092l-1.457-1.457Z" fill="#FAA21E" />
                <path d="m31.447 17.034-1.883.547c.419-.122 1.356-.328 1.761-.182.405.145 1.221.789 1.579 1.092l-1.457-1.457Z" fill="#fff" fill-opacity=".95" />
            </g>
            <g clip-path="url(#amdc)">
                <path d="m34.354 17.036-.364 1.093-2.186-2.186 1.093-.364 1.457 1.457ZM32.897 15.579l-1.093.364.729-3.157.91.91-.546 1.883Z" fill="#546DDB" />
                <path d="m32.897 15.579-1.093.364.729-3.157.91.91-.546 1.883Z" fill="#fff" fill-opacity=".2" />
                <path d="m34.354 17.036-.364 1.093 3.157-.729-.911-.91-1.882.546Z" fill="#546DDB" />
                <path d="m34.354 17.036-.364 1.093 3.157-.729-.911-.91-1.882.546Z" fill="#000" fill-opacity=".2" />
                <path d="m37.38 12.553-3.937 1.144-.91-.91 6.435-1.822-1.588 1.588Z" fill="#546DDB" />
                <path d="m37.38 12.553-3.937 1.144-.91-.91 6.435-1.822-1.588 1.588Z" fill="#000" fill-opacity=".2" />
                <path d="m35.325 13.15-1.882.547-.79-.79c.365.243.563.39.85.486.289.096 1.296-.162 1.822-.243Z" fill="#FEFEFE" />
                <path d="m36.236 16.49.911.91 1.821-6.435-1.588 1.588-1.144 3.937Z" fill="#546DDB" />
                <path d="m36.236 16.49.911.91 1.821-6.435-1.588 1.588-1.144 3.937Z" fill="#fff" fill-opacity=".4" />
                <path d="m32.897 15.58 1.457 1.456 1.882-.546 1.154-3.947-3.947 1.154-.546 1.882Z" fill="#546DDB" />
                <path d="m32.897 15.58 1.457 1.456 1.882-.546 1.154-3.947-3.947 1.154-.546 1.882Z" fill="#fff" fill-opacity=".6" />
                <path d="m34.354 17.036 1.882-.546c-.418.121-1.355.328-1.76.182-.405-.146-1.222-.79-1.579-1.093l1.457 1.457Z" fill="#FEFEFE" />
            </g>
            <path d="M43.59 7.59c1.04-1.04 2.052-2.861 2.428-3.642-.78.376-2.602 1.388-3.643 2.429-1.04 1.04-2.197 3.006-2.429 3.642.636-.23 2.602-1.387 3.643-2.428Z" fill="#546DDB" />
            <path d="M43.59 7.59c1.04-1.04 2.052-2.861 2.428-3.642-.78.376-2.602 1.388-3.643 2.429-1.04 1.04-2.197 3.006-2.429 3.642.636-.23 2.602-1.387 3.643-2.428Z" fill="#000" fill-opacity=".2" />
            <path d="M42.375 6.377c-1.04 1.04-2.197 3.006-2.429 3.642l6.072-6.071c-.78.376-2.602 1.388-3.643 2.429Z" fill="#546DDB" />
            <path d="M42.375 6.377c-1.04 1.04-2.197 3.006-2.429 3.642l6.072-6.071c-.78.376-2.602 1.388-3.643 2.429Z" fill="#fff" fill-opacity=".2" />
        </g>
        <defs>
            <clipPath id="amda">
                <path fill="#fff" transform="matrix(-1 0 0 1 50 0)" d="M0 0h50v50H0z" />
            </clipPath>
            <clipPath id="amdb">
                <path fill="#fff" transform="scale(-1 1) rotate(-15 46.17 144.703)" d="M0 0h8.586v8.586H0z" />
            </clipPath>
            <clipPath id="amdc">
                <path fill="#fff" transform="scale(1 -1) rotate(-15 -50.325 -122.236)" d="M0 0h8.586v8.586H0z" />
            </clipPath>
        </defs>
    </symbol>
    <symbol fill="none" viewBox="0 0 50 50" id="griffin_bulwark">
        <path d="m39.002 24.943-.004.057.004.057.96 16.79-13.66 5.653h-2.603L10.05 41.853C10.405 37 11 27.323 11 25c0-2.324-.596-11.901-.95-16.84L23.127 3h3.748L39.96 8.165l-.958 16.778Z" fill="#7445B8" />
        <path d="m39.002 24.943-.004.057.004.057.96 16.79-13.66 5.653h-2.603L10.05 41.853C10.405 37 11 27.323 11 25c0-2.324-.596-11.901-.95-16.84L23.127 3h3.748L39.96 8.165l-.958 16.778Z" fill="#000" fill-opacity=".4" />
        <path d="m39.002 24.943-.004.057.004.057.96 16.79-13.66 5.653h-2.603L10.05 41.853C10.405 37 11 27.323 11 25c0-2.324-.596-11.901-.95-16.84L23.127 3h3.748L39.96 8.165l-.958 16.778Z" stroke="#898989" stroke-width="2" />
        <path d="m39.002 24.943-.004.057.004.057.96 16.79-13.66 5.653h-2.603L10.05 41.853C10.405 37 11 27.323 11 25c0-2.324-.596-11.901-.95-16.84L23.127 3h3.748L39.96 8.165l-.958 16.778Z" stroke="#fff" stroke-opacity=".8" stroke-width="2" />
        <path d="M13 10.5 24.5 6h1L37 10.5 36 25l1 14.5L25.5 44h-1L13 39.5c.255-3.485 1-12.662 1-14.5 0-1.838-.5-11-1-14.5Z" fill="#7445B8" />
        <path d="m11.5 10 27 30m-27-15H40M11.5 40l27-30M25 3v43.5" stroke="#898989" stroke-width="2" />
        <path d="m11.5 10 27 30m-27-15H40M11.5 40l27-30M25 3v43.5" stroke="#fff" stroke-opacity=".8" stroke-width="2" />
        <path d="M23 1.333C24.079.895 24.517.616 25 0v8c-1.028-2.044-1.47-2.924-2-6.667Z" fill="#FAA21E" />
        <path d="M27 1.333C25.921.895 25.483.616 25 0v8c1.028-2.044 1.47-2.924 2-6.667Z" fill="#C57A09" />
        <path d="M15.117 4.9c.792-.853 1.07-1.29 1.249-2.053l3.38 7.25C17.952 8.68 17.18 8.068 15.117 4.9Z" fill="#FAA21E" />
        <path d="M18.742 3.21c-1.163.058-1.678-.01-2.376-.363l3.38 7.25c.069-2.287.096-3.27-1.004-6.887Z" fill="#C57A09" />
        <path d="M18.742 46.734c-1.163-.058-1.678.01-2.376.363l3.38-7.25c.069 2.286.096 3.27-1.004 6.887Z" fill="#FAA21E" />
        <path d="M15.117 45.044c.792.853 1.07 1.29 1.249 2.053l3.38-7.25c-1.795 1.417-2.567 2.029-4.63 5.197Z" fill="#C57A09" />
        <path d="M31.26 3.156c1.163.059 1.678-.01 2.376-.363l-3.38 7.25c-.069-2.286-.096-3.27 1.004-6.887Z" fill="#FAA21E" />
        <path d="M34.886 4.847c-.793-.854-1.072-1.291-1.25-2.054l-3.38 7.25c1.795-1.417 2.566-2.028 4.63-5.196Z" fill="#C57A09" />
        <path d="M34.886 45.101c-.793.854-1.072 1.291-1.25 2.054l-3.38-7.25c1.795 1.417 2.566 2.028 4.63 5.196Z" fill="#FAA21E" />
        <path d="M31.26 46.792c1.163-.059 1.678.01 2.376.363l-3.38-7.25c-.069 2.286-.096 3.27 1.004 6.887Z" fill="#C57A09" />
        <path d="M9.333 27c-.438-1.079-.717-1.517-1.333-2h8c-2.044 1.028-2.924 1.47-6.667 2Z" fill="#FAA21E" />
        <path d="M9.333 23c-.438 1.079-.717 1.517-1.333 2h8c-2.044-1.028-2.924-1.47-6.667-2Z" fill="#C57A09" />
        <path d="M8.833 35c-.438-1.079-.717-1.517-1.333-2h8c-2.044 1.028-2.924 1.47-6.667 2Z" fill="#FAA21E" />
        <path d="M8.833 31c-.438 1.079-.717 1.517-1.333 2h8c-2.044-1.028-2.924-1.47-6.667-2Z" fill="#C57A09" />
        <path d="M8.833 19c-.438-1.079-.717-1.517-1.333-2h8c-2.044 1.028-2.924 1.47-6.667 2Z" fill="#FAA21E" />
        <path d="M8.833 15c-.438 1.079-.717 1.517-1.333 2h8c-2.044-1.028-2.924-1.47-6.667-2Z" fill="#C57A09" />
        <path d="M40.667 23c.438 1.079.717 1.517 1.333 2h-8c2.044-1.028 2.924-1.47 6.667-2Z" fill="#FAA21E" />
        <path d="M40.667 27c.438-1.079.717-1.517 1.333-2h-8c2.044 1.028 2.924 1.47 6.667 2Z" fill="#C57A09" />
        <path d="M41.167 31c.438 1.079.717 1.517 1.333 2h-8c2.044-1.028 2.924-1.47 6.667-2Z" fill="#FAA21E" />
        <path d="M41.167 35c.438-1.079.717-1.517 1.333-2h-8c2.044 1.028 2.924 1.47 6.667 2Z" fill="#C57A09" />
        <path d="M41.167 15c.438 1.079.717 1.517 1.333 2h-8c2.044-1.028 2.924-1.47 6.667-2Z" fill="#FAA21E" />
        <path d="M41.167 19c.438-1.079.717-1.517 1.333-2h-8c2.044 1.028 2.924 1.47 6.667 2Z" fill="#C57A09" />
        <path d="M7.943 9.271c.452-1.073.565-1.58.471-2.357l5.657 5.657c-2.172-.718-3.106-1.029-6.128-3.3Z" fill="#FAA21E" />
        <path d="M10.771 6.443c-1.073.452-1.58.565-2.357.471l5.657 5.657c-.718-2.172-1.029-3.106-3.3-6.128Z" fill="#C57A09" />
        <path d="M10.771 43.542c-1.073-.452-1.58-.564-2.357-.47l5.657-5.658c-.718 2.172-1.029 3.106-3.3 6.128Z" fill="#FAA21E" />
        <path d="M7.943 40.714c.452 1.073.565 1.58.471 2.357l5.657-5.657c-2.172.718-3.106 1.029-6.128 3.3Z" fill="#C57A09" />
        <path d="M42.085 40.74c-.453 1.073-.565 1.58-.472 2.357l-5.657-5.656c2.173.718 3.107 1.028 6.129 3.3Z" fill="#FAA21E" />
        <path d="M39.256 43.569c1.074-.453 1.58-.565 2.357-.472l-5.656-5.656c.718 2.172 1.028 3.106 3.3 6.128Z" fill="#C57A09" />
        <path d="M39.138 6.407c1.073.452 1.58.565 2.357.471l-5.657 5.657c.718-2.172 1.029-3.106 3.3-6.128Z" fill="#FAA21E" />
        <path d="M41.966 9.235c-.452-1.073-.565-1.58-.471-2.357l-5.657 5.657c2.172-.718 3.106-1.029 6.128-3.3Z" fill="#C57A09" />
        <path d="M27 48.667c-1.079.438-1.517.717-2 1.333v-8c1.028 2.044 1.47 2.924 2 6.667Z" fill="#FAA21E" />
        <path d="M23 48.667c1.079.438 1.517.717 2 1.333v-8c-1.028 2.044-1.47 2.924-2 6.667Z" fill="#C57A09" />
    </symbol>
    <symbol fill="none" viewBox="0 0 50 50" id="regal_sword">
        <g clip-path="url(#avla)">
            <path d="M12.245 37.755c1.525 1.526 4.818 2.89 6.27 3.253C18.787 41.1 28 45 28 45s-9.757-1.54-10.03-1.54l-5.215-2.134L6.49 46.73 2.5 50 0 47.5l3.267-4.04 5.174-6.266-1.634-5.177C6.717 31.654 4.5 21.5 4.5 21.5s4.395 9.609 4.485 9.972c.454 1.544 1.735 4.757 3.26 6.283Z" fill="#FAA21E" />
            <path d="M41 5c-1.2 1.2-19.333 19.167-30 29l5 5C26.333 28.167 44.367 9.632 45 9c1-1 4.833-7.667 5-9-1.333 0-7.8 3.8-9 5Z" fill="#898989" />
            <path d="M41 5c-1.2 1.2-19.333 19.167-30 29l5 5C26.333 28.167 44.367 9.632 45 9c1-1 4.833-7.667 5-9-1.333 0-7.8 3.8-9 5Z" fill="#fff" fill-opacity=".4" />
            <path d="M50 0 13 37l2 3C26 29 44.6 9.4 45 9c1.5-1.5 5-8.5 5-9Z" fill="#898989" />
            <path d="M50 0 13 37l2 3C26 29 44.6 9.4 45 9c1.5-1.5 5-8.5 5-9Z" fill="#fff" fill-opacity=".2" />
            <path d="M43 6c-.8.81-22.5 22-29.5 29l1.5 1.5c7-7 28.578-29.073 29-29.5.667-.675 2-2.5 2-3-.5 0-2.2 1.19-3 2Z" fill="#FEFEFE" />
            <path d="M44 7c.667-.675 2-2.5 2-3L14.25 35.75l.75.75c7-7 28.578-29.073 29-29.5Z" fill="#898989" />
            <path d="M44 7c.667-.675 2-2.5 2-3L14.25 35.75l.75.75c7-7 28.578-29.073 29-29.5Z" fill="#fff" fill-opacity=".6" />
            <g clip-path="url(#avlb)">
                <path d="m13.083 34.625.552-1.656 3.313 3.313-1.657.552-2.208-2.209Z" fill="#546DDB" />
                <path d="m15.291 36.834 1.657-.552-1.104 4.785-1.38-1.38.827-2.853Z" fill="#546DDB" />
                <path d="m15.291 36.834 1.657-.552-1.104 4.785-1.38-1.38.827-2.853Z" fill="#fff" fill-opacity=".2" />
                <path d="m13.083 34.625.552-1.656-4.785 1.104 1.38 1.38 2.853-.828Z" fill="#546DDB" />
                <path d="m13.083 34.625.552-1.656-4.785 1.104 1.38 1.38 2.853-.828Z" fill="#000" fill-opacity=".2" />
                <path d="m8.496 41.42 5.967-1.733 1.38 1.38-9.754 2.76 2.407-2.406Z" fill="#546DDB" />
                <path d="m8.496 41.42 5.967-1.733 1.38 1.38-9.754 2.76 2.407-2.406Z" fill="#000" fill-opacity=".2" />
                <path d="m11.61 40.515 2.853-.828 1.197 1.196c-.553-.368-.853-.591-1.289-.736-.436-.146-1.963.245-2.76.368Z" fill="#FEFEFE" />
                <path d="m10.23 35.454-1.38-1.38-2.76 9.754 2.406-2.407 1.734-5.967Z" fill="#546DDB" />
                <path d="m10.23 35.454-1.38-1.38-2.76 9.754 2.406-2.407 1.734-5.967Z" fill="#fff" fill-opacity=".4" />
                <path d="m15.291 36.834-2.208-2.209-2.853.828-1.748 5.982 5.981-1.748.828-2.853Z" fill="#546DDB" />
                <path d="m15.291 36.834-2.208-2.209-2.853.828-1.748 5.982 5.981-1.748.828-2.853Z" fill="#fff" fill-opacity=".6" />
                <path d="m13.083 34.625-2.853.828c.634-.184 2.055-.496 2.669-.276.614.221 1.85 1.197 2.392 1.657l-2.208-2.209Z" fill="#FEFEFE" />
            </g>
        </g>
        <defs>
            <clipPath id="avla">
                <path fill="#fff" d="M0 0h50v50H0z" />
            </clipPath>
            <clipPath id="avlb">
                <path fill="#fff" transform="scale(-1 1) rotate(-15 120.717 92.394)" d="M0 0h13.014v13.014H0z" />
            </clipPath>
        </defs>
    </symbol>
    <symbol fill="none" viewBox="0 0 50 50" id="rippling_trident">
        <g clip-path="url(#awfa)">
            <g clip-path="url(#awfb)">
                <path d="m29.375 18.75 1.875 1.875L3.125 48.75 1.25 46.875 29.375 18.75Z" fill="#1D8CE0" />
                <path d="m29.375 18.75 1.875 1.875L3.125 48.75 1.25 46.875 29.375 18.75Z" fill="#000" fill-opacity=".2" />
                <path d="m29.375 18.75.935.935L2.185 47.81l-.935-.935L29.375 18.75Z" fill="#1D8CE0" />
                <path d="m29.375 18.75.935.935L2.185 47.81l-.935-.935L29.375 18.75Z" fill="#fff" fill-opacity=".4" />
                <path d="M27.792 9.97C29.493 7.737 32.55 5.2 38.125 0l-2.378 6.435-.683-2.45c-2.863 3.073-4.385 4.776-5.062 7.312 0 1.828.998 3.703 2.498 3.203l-3.75 6.75c.884-1.768-.725-5.247-1.4-7.302-.475-1.448-.26-2.676.442-3.977Z" fill="#1D8CE0" />
                <path d="M27.792 9.97C29.493 7.737 32.55 5.2 38.125 0l-2.378 6.435-.683-2.45c-2.863 3.073-4.385 4.776-5.062 7.312 0 1.828.998 3.703 2.498 3.203l-3.75 6.75c.884-1.768-.725-5.247-1.4-7.302-.475-1.448-.26-2.676.442-3.977Z" fill="#fff" fill-opacity=".2" />
                <path d="M36.19 22.787c-1.815-.912-5.672-2.42-7.44-1.537l6.75-3.75c0 1.5 1.375 2.635 3.341 2.635 2.792-.799 4.414-2.285 7.312-5.062l-2.45-.683L50 11.875c-4.332 4.587-6.878 8.232-9.833 10.47-1.346.96-2.525 1.172-3.978.442Z" fill="#1D8CE0" />
                <path d="M36.19 22.787c-1.815-.912-5.672-2.42-7.44-1.537l6.75-3.75c0 1.5 1.375 2.635 3.341 2.635 2.792-.799 4.414-2.285 7.312-5.062l-2.45-.683L50 11.875c-4.332 4.587-6.878 8.232-9.833 10.47-1.346.96-2.525 1.172-3.978.442Z" fill="#fff" fill-opacity=".2" />
                <path d="M47.586 3.367c-4.277 4.42-10.572 10.86-11.994 14.714l-6.842 3.17L49.991.146c-.458 3.012-1.156 4.425-2.478 6.897l.073-3.677Z" fill="#1D8CE0" />
                <path d="M47.586 3.367c-4.277 4.42-10.572 10.86-11.994 14.714l-6.842 3.17L49.991.146c-.458 3.012-1.156 4.425-2.478 6.897l.073-3.677Z" fill="#000" fill-opacity=".2" />
                <path d="M32.044 14.558c2.942-.722 9.459-6.836 14.679-11.959l-3.672.069C45.69 1.267 47.179.569 49.936.202L28.75 21.25l3.294-6.692Z" fill="#1D8CE0" />
                <path d="M32.044 14.558c2.942-.722 9.459-6.836 14.679-11.959l-3.672.069C45.69 1.267 47.179.569 49.936.202L28.75 21.25l3.294-6.692Z" fill="#fff" fill-opacity=".4" />
                <path d="M43.689 14.404c2.322-1.562 3.701-2.147 6.35-2.568l-3.889 3.24-2.461-.672Z" fill="#1D8CE0" />
                <path d="M43.689 14.404c2.322-1.562 3.701-2.147 6.35-2.568l-3.889 3.24-2.461-.672Z" fill="#fff" fill-opacity=".6" />
                <path d="m35.747 6.435-.683-2.45L38.125 0c-.511 2.544-.957 3.958-2.378 6.435Z" fill="#1D8CE0" />
                <path d="m35.747 6.435-.683-2.45L38.125 0c-.511 2.544-.957 3.958-2.378 6.435Z" fill="#fff" fill-opacity=".6" />
                <path d="M0 46.25h3.75V50H0v-3.75Z" fill="#1D8CE0" />
                <path d="M0 46.25h3.75V50H0v-3.75Z" fill="#fff" fill-opacity=".4" />
                <path d="M3.75 50H0l3.75-3.75V50Z" fill="#1D8CE0" />
                <path d="M1.25 47.5H2.5v1.25H1.25V47.5Z" fill="#1D8CE0" />
                <path d="M1.25 47.5H2.5v1.25H1.25V47.5Z" fill="#fff" fill-opacity=".95" />
                <path d="m2.5 47.5-1.25 1.25H2.5V47.5Z" fill="#1D8CE0" />
                <path d="m2.5 47.5-1.25 1.25H2.5V47.5Z" fill="#fff" fill-opacity=".6" />
            </g>
            <path d="M21.367 11.867c-1-2.839.733-4.767 2.566-5.867-1.1 1.833-1.733 1.94-.733 5.133.852 2.72.367 4.034-2.2 5.867 1.1-2.2 1.332-2.394.367-5.133Z" fill="#1D8CE0" />
            <path d="M21.367 11.867c-1-2.839.733-4.767 2.566-5.867-1.1 1.833-1.733 1.94-.733 5.133.852 2.72.367 4.034-2.2 5.867 1.1-2.2 1.332-2.394.367-5.133Z" fill="#fff" fill-opacity=".8" />
            <path d="M26.681 33.401c-1.779 2.356-.732 4.674.655 6.248-.483-2.041-1.043-2.33.84-5.017 1.606-2.29 1.543-3.661-.311-6.138.374 2.383.533 2.633-1.184 4.907Z" fill="#1D8CE0" />
            <path d="M26.681 33.401c-1.779 2.356-.732 4.674.655 6.248-.483-2.041-1.043-2.33.84-5.017 1.606-2.29 1.543-3.661-.311-6.138.374 2.383.533 2.633-1.184 4.907Z" fill="#fff" fill-opacity=".6" />
            <path d="M24.82 18.335c1.698-2.494.461-4.803-1.08-6.335.632 2.056 1.233 2.32-.553 5.158-1.52 2.418-1.367 3.813.718 6.242-.541-2.41-.723-2.657.916-5.064Z" fill="#1D8CE0" />
            <path d="M24.82 18.335c1.698-2.494.461-4.803-1.08-6.335.632 2.056 1.233 2.32-.553 5.158-1.52 2.418-1.367 3.813.718 6.242-.541-2.41-.723-2.657.916-5.064Z" fill="#fff" fill-opacity=".6" />
            <path d="M17.62 17.822c-.213-1.181.646-2.995.856-3.71.446.597 1.284 2.168 1.112 3.356-.226 1.564.502 2.788.62 3.444-1.653-.718-2.375-1.91-2.588-3.09Z" fill="#1D8CE0" />
            <path d="M17.62 17.822c-.213-1.181.646-2.995.856-3.71.446.597 1.284 2.168 1.112 3.356-.226 1.564.502 2.788.62 3.444-1.653-.718-2.375-1.91-2.588-3.09Z" fill="#fff" fill-opacity=".6" />
            <path d="M21.485 25.742c-.51-.933-.178-2.763-.168-3.44.575.358 1.774 1.416 1.924 2.483.197 1.407 1.202 2.205 1.485 2.724-1.741-.06-2.732-.833-3.241-1.767Z" fill="#1D8CE0" />
            <path d="M21.485 25.742c-.51-.933-.178-2.763-.168-3.44.575.358 1.774 1.416 1.924 2.483.197 1.407 1.202 2.205 1.485 2.724-1.741-.06-2.732-.833-3.241-1.767Z" fill="#fff" fill-opacity=".8" />
            <path d="M2.763 37.716c.747-1.452 3.357-2.609 4.227-3.181.04 1.04-.27 3.475-1.496 4.586-1.617 1.464-1.764 3.428-2.18 4.235-1.425-2.264-1.298-4.188-.551-5.64Z" fill="#1D8CE0" />
            <path d="M2.763 37.716c.747-1.452 3.357-2.609 4.227-3.181.04 1.04-.27 3.475-1.496 4.586-1.617 1.464-1.764 3.428-2.18 4.235-1.425-2.264-1.298-4.188-.551-5.64Z" fill="#fff" fill-opacity=".6" />
            <path d="M27.128 30.93c.484-1.375-.367-3.777-.53-4.693-.7.613-2.088 2.307-2.056 3.784.043 1.946-1.141 3.247-1.41 4.01 2.343-.463 3.513-1.726 3.996-3.101Z" fill="#1D8CE0" />
            <path d="M27.128 30.93c.484-1.375-.367-3.777-.53-4.693-.7.613-2.088 2.307-2.056 3.784.043 1.946-1.141 3.247-1.41 4.01 2.343-.463 3.513-1.726 3.996-3.101Z" fill="#fff" fill-opacity=".6" />
            <path d="M21.187 37.514c-1.12.265-2.216.955-2.312 1.418.062-1.21.851-3.306 2.268-3.942 1.417-.636 2.595-.114 3.995-.637-.028.51-.567 1.72-1.2 2.323-.79.753-1.351.508-2.75.838Z" fill="#1D8CE0" />
            <path d="M21.187 37.514c-1.12.265-2.216.955-2.312 1.418.062-1.21.851-3.306 2.268-3.942 1.417-.636 2.595-.114 3.995-.637-.028.51-.567 1.72-1.2 2.323-.79.753-1.351.508-2.75.838Z" fill="#fff" fill-opacity=".6" />
            <path d="M7.846 34.471c.053.83-.236 1.755-.578 1.942.939-.359 2.407-1.442 2.578-2.571.171-1.129-.515-1.793-.43-2.88-.396.152-1.224.834-1.551 1.421-.41.734-.085 1.051-.02 2.088Z" fill="#1D8CE0" />
            <path d="M7.846 34.471c.053.83-.236 1.755-.578 1.942.939-.359 2.407-1.442 2.578-2.571.171-1.129-.515-1.793-.43-2.88-.396.152-1.224.834-1.551 1.421-.41.734-.085 1.051-.02 2.088Z" fill="#fff" fill-opacity=".6" />
            <path d="M10.76 37.39c-1.594-.42-3.232.659-4.081 1.573.43-.757 1.237-1.933 2.897-2.924 1.91-1.14 3.996-.38 6.431-.245 2.313.13 3.268-1.006 3.74-1.41-.143.623-1.155 2.328-2.64 3.683-1.855 1.693-4.354-.154-6.347-.678Z" fill="#1D8CE0" />
            <path d="M10.76 37.39c-1.594-.42-3.232.659-4.081 1.573.43-.757 1.237-1.933 2.897-2.924 1.91-1.14 3.996-.38 6.431-.245 2.313.13 3.268-1.006 3.74-1.41-.143.623-1.155 2.328-2.64 3.683-1.855 1.693-4.354-.154-6.347-.678Z" fill="#fff" fill-opacity=".8" />
            <circle cx="7" cy="46" r="1" fill="#FEFEFE" />
            <circle cx="28.5" cy="39.5" r=".5" fill="#FEFEFE" />
            <circle cx="25.5" cy="5.5" r=".5" fill="#FEFEFE" />
            <circle cx="20.5" cy="7.5" r=".5" fill="#FEFEFE" />
            <circle cx="16.5" cy="14.5" r=".5" fill="#FEFEFE" />
            <circle cx="30.5" cy="29.5" r=".5" fill="#FEFEFE" />
            <circle cx="6.5" cy="32.5" r=".5" fill="#FEFEFE" />
            <circle cx="3.5" cy="44.5" r=".5" fill="#FEFEFE" />
            <circle cx="24.75" cy="37.75" r=".75" fill="#FEFEFE" />
            <circle cx="20" cy="5" r="1" fill="#FEFEFE" />
        </g>
        <defs>
            <clipPath id="awfa">
                <path fill="#fff" transform="matrix(-1 0 0 1 50 0)" d="M0 0h50v50H0z" />
            </clipPath>
            <clipPath id="awfb">
                <path fill="#fff" d="M0 0h50v50H0z" />
            </clipPath>
        </defs>
    </symbol>
    <symbol fill="none" viewBox="0 0 50 50" id="sundering_crossbow">
        <g clip-path="url(#azba)">
            <path d="m0 50 5-1 3-3 29-29-4-4L4 42l-3 3-1 5Z" fill="#7445B8" />
            <path d="m0 50 5-1 3-3 29-29-4-4L4 42l-3 3-1 5Z" fill="#000" fill-opacity=".2" />
            <path d="m42.592 43.753-30.42-5.926-5.925-30.42" stroke="#7445B8" />
            <path d="m42.592 43.753-30.42-5.926-5.925-30.42" stroke="#fff" stroke-opacity=".4" />
            <path d="M49.704 31.11C45.49 34.847 44.474 42.559 45 50c-3.95-3.95-7.938-12.568-3.593-16.914C33.901 29.531 32.34 20.821 35.5 14.5c-6.321 3.16-14.24.809-18.586-6.698C12.173 12.543 4.74 9.741 0 5c6.403.864 14.118-.167 18.494-5.099 2.37 10.272 9.086 15.407 19.753 11.852C34.691 22.42 39.64 28.948 49.704 31.11Z" fill="#7445B8" />
            <path d="M49.704 31.11C45.49 34.847 44.474 42.559 45 50c-3.95-3.95-7.938-12.568-3.593-16.914C33.901 29.531 32.34 20.821 35.5 14.5c-6.321 3.16-14.24.809-18.586-6.698C12.173 12.543 4.74 9.741 0 5c6.403.864 14.118-.167 18.494-5.099 2.37 10.272 9.086 15.407 19.753 11.852C34.691 22.42 39.64 28.948 49.704 31.11Z" fill="#000" fill-opacity=".2" />
            <path d="M49.703 31.111C45.49 34.846 44.474 42.558 45 50c-2.604-5.988-4.778-13.358-.432-17.704-7.506-3.555-8.176-10.284-8.068-18.796-8.149.36-14.846-.957-19.192-8.463-4.74 4.74-11.562 2.8-17.308 0 6.403.864 14.117-.204 18.494-5.136C20.864 10.173 29.834 13.056 40.5 9.5c-3.556 10.667-.86 19.448 9.203 21.611Z" fill="#7445B8" />
            <path d="M49.703 31.111C45.49 34.846 44.474 42.558 45 50c-2.604-5.988-4.778-13.358-.432-17.704-7.506-3.555-8.176-10.284-8.068-18.796-8.149.36-14.846-.957-19.192-8.463-4.74 4.74-11.562 2.8-17.308 0 6.403.864 14.117-.204 18.494-5.136C20.864 10.173 29.834 13.056 40.5 9.5c-3.556 10.667-.86 19.448 9.203 21.611Z" fill="#fff" fill-opacity=".2" />
            <path d="M3.828 46.173 48 2" stroke="#7445B8" />
            <path d="M3.828 46.173 48 2" stroke="#fff" stroke-opacity=".8" />
            <path d="m0 44 4-2 .5 3.5L8 46l-2 4H0v-6Z" fill="#7445B8" />
            <path d="m0 44 4-2 .5 3.5L8 46l-2 4H0v-6Z" fill="#fff" fill-opacity=".2" />
            <path d="M40 3.5 49.75.25 45 5l-5-1.5Z" fill="#7445B8" />
            <path d="M40 3.5 49.75.25 45 5l-5-1.5Z" fill="#fff" fill-opacity=".4" />
            <path d="M46.5 10 49.75.25 45 5l1.5 5Z" fill="#7445B8" />
            <path d="M46.5 10 49.75.25 45 5l1.5 5Z" fill="#fff" fill-opacity=".6" />
            <g clip-path="url(#azbb)">
                <path d="m18.082 8.03.336 1.16-3.186-.585.726-.964 2.124.39Z" fill="#FAA21E" />
                <path d="m18.082 8.03.336 1.16-3.186-.585.726-.964 2.124.39Z" fill="#000" fill-opacity=".1" />
                <path d="m15.958 7.64-.726.965-1.25-3.157 1.328.244.648 1.949Z" fill="#FAA21E" />
                <path d="m18.082 8.03.336 1.16 2.29-2.506-1.327-.244-1.299 1.59ZM18.026 2.363 15.31 5.692l-1.327-.244 4.468-5.4-.425 2.315Z" fill="#C57A09" />
                <path d="M16.609 4.1 15.31 5.693l-1.15-.212c.458-.007.716.002 1.022-.086.305-.089 1.02-.91 1.427-1.293Z" fill="#FAA21E" />
                <path d="M16.609 4.1 15.31 5.693l-1.15-.212c.458-.007.716.002 1.022-.086.305-.089 1.02-.91 1.427-1.293Z" fill="#fff" fill-opacity=".95" />
                <path d="m19.38 6.44 1.328.244L18.451.048l-.425 2.314 1.355 4.078Z" fill="#FAA21E" />
                <path d="m19.38 6.44 1.328.244L18.451.048l-.425 2.314 1.355 4.078Z" fill="#fff" fill-opacity=".2" />
                <path d="m15.958 7.64 2.124.39 1.299-1.59-1.352-4.091-2.719 3.343.648 1.949Z" fill="#FAA21E" />
                <path d="m15.958 7.64 2.124.39 1.299-1.59-1.352-4.091-2.719 3.343.648 1.949Z" fill="#fff" fill-opacity=".4" />
                <path d="m18.082 8.03 1.299-1.59c-.289.353-.975 1.09-1.41 1.204-.437.116-1.524.046-2.013-.003l2.124.39Z" fill="#FAA21E" />
                <path d="m18.082 8.03 1.299-1.59c-.289.353-.975 1.09-1.41 1.204-.437.116-1.524.046-2.013-.003l2.124.39Z" fill="#fff" fill-opacity=".95" />
            </g>
            <g clip-path="url(#azbc)">
                <path d="m41.697 32.08-1.18-.252.81 3.137.91-.793-.54-2.091Z" fill="#FAA21E" />
                <path d="m41.697 32.08-1.18-.252.81 3.137.91-.793-.54-2.091Z" fill="#000" fill-opacity=".1" />
                <path d="m42.237 34.172-.91.793 3.238 1.022-.338-1.307-1.99-.508Z" fill="#FAA21E" />
                <path d="m41.697 32.081-1.18-.253 2.337-2.462.338 1.307-1.495 1.408ZM47.355 31.735l-3.128 2.945.338 1.307 5.069-4.841-2.279.589Z" fill="#C57A09" />
                <path d="m45.722 33.272-1.495 1.408.293 1.133c-.026-.458-.053-.715.014-1.026.066-.31.835-1.083 1.188-1.515Z" fill="#FAA21E" />
                <path d="m45.722 33.272-1.495 1.408.293 1.133c-.026-.458-.053-.715.014-1.026.066-.31.835-1.083 1.188-1.515Z" fill="#fff" fill-opacity=".95" />
                <path d="m43.192 30.672-.337-1.306 6.779 1.78-2.279.589-4.163-1.063Z" fill="#FAA21E" />
                <path d="m43.192 30.672-.337-1.306 6.779 1.78-2.279.589-4.163-1.063Z" fill="#fff" fill-opacity=".2" />
                <path d="m42.237 34.172-.54-2.091 1.495-1.409 4.177 1.06-3.142 2.948-1.99-.508Z" fill="#FAA21E" />
                <path d="m42.237 34.172-.54-2.091 1.495-1.409 4.177 1.06-3.142 2.948-1.99-.508Z" fill="#fff" fill-opacity=".4" />
                <path d="m41.697 32.08 1.495-1.407c-.332.312-1.017 1.049-1.101 1.492-.084.443.063 1.523.146 2.007l-.54-2.091Z" fill="#FAA21E" />
                <path d="m41.697 32.08 1.495-1.407c-.332.312-1.017 1.049-1.101 1.492-.084.443.063 1.523.146 2.007l-.54-2.091Z" fill="#fff" fill-opacity=".95" />
            </g>
        </g>
        <defs>
            <clipPath id="azba">
                <path fill="#fff" transform="matrix(-1 0 0 1 50 0)" d="M0 0h50v50H0z" />
            </clipPath>
            <clipPath id="azbb">
                <path fill="#fff" transform="scale(1 -1) rotate(19.586 38.46 36.17)" d="M0 0h8.998v8.998H0z" />
            </clipPath>
            <clipPath id="azbc">
                <path fill="#fff" transform="rotate(-74.484 43.278 -7.783)" d="M0 0h9.005v8.998H0z" />
            </clipPath>
        </defs>
    </symbol>
    </svg>